Simulation
nRows=46
nColumns=15
endheader
time  TH_x TH_y TH_z SC_y  SC_z  SC_x  AC_y  AC_z  AC_x  GH_y  GH_z  GH_yy  EL_x  PS_y
8.073123595505619  0.000000  0.000000  0.000000  -23.95249637555252  5.911414017707684  5.12363556636505  59.24953779309143  5.09552461074906  3.8661177846073422  -109.92264004625189  3.447620167004451  165.11510977683827  16.76791779769849  120.000000
8.113288389513109  0.000000  0.000000  0.000000  -23.68780369526118  5.949033663522436  5.01824584375968  59.24667701452472  4.741046263424385  3.9649081767810705  -97.57184213492458  2.8050374587555265  152.28537659710676  16.280916885552507  120.000000
8.153453183520599  0.000000  0.000000  0.000000  -23.396322102279644  6.007502403337118  4.9374211177317155  59.25800546755199  4.443674811938714  4.097176710236406  -76.91345692261262  2.2374890370015423  130.95567137833203  15.736481083580863  120.000000
8.19361797752809  0.000000  0.000000  0.000000  -23.082111464372943  6.099709276402117  4.90440768144695  59.29004600789503  4.22864728498219  4.265694116611354  -44.09643390513891  2.0661534832748125  97.27212078596995  15.154679551623158  120.000000
8.23378277153558  0.000000  0.000000  0.000000  -22.753919900606178  6.2380280517791755  4.940154491712014  59.345718823019254  4.115967652438273  4.472777660354347  -12.194778057807845  2.649978483548085  64.31032876302035  14.55828452671054  120.000000
8.273947565543072  0.000000  0.000000  0.000000  -22.424395427742557  6.432009178661652  5.061422833954637  59.42612418600686  4.11827768212892  4.720605060057459  6.621622403899259  3.8753441748889212  44.247183952578226  13.969982028526832  120.000000
8.314112359550561  0.000000  0.000000  0.000000  -22.107927345743363  6.687210219909384  5.2780472232485405  59.53244846212777  4.239735217808561  5.012185262753866  16.571993935371772  5.5074575657691645  32.8773748747866  13.410343237325412  120.000000
8.354277153558053  0.000000  0.000000  0.000000  -21.818651912114316  7.0035990384669216  5.59262713292071  59.66541159754849  4.4746198551747165  5.352921261455298  22.106441433580578  7.431611885613261  25.77241642815209  12.895633268416745  120.000000
8.394441947565543  0.000000  0.000000  0.000000  -21.56843592865479  7.37589339767627  6.002276781033013  59.82546919726686  4.808356557025043  5.748699788868459  25.347190978066468  9.59069235846052  20.838580081621643  12.436346945851524  120.000000
8.434606741573035  0.000000  0.000000  0.000000  -21.366572128818248  7.796333127266126  6.500688442363351  60.0125481791305  5.220955763879208  6.203945068703236  27.28727759407316  11.944955340998359  17.1159032175913  12.036700372222013  120.000000
8.474771535580524  0.000000  0.000000  0.000000  -21.2192306758532  8.255819517166943  7.079747498567378  60.224888956172045  5.69033475072809  6.720899795648409  28.42834740096129  14.4586683549418  14.137627732848268  11.695266185529647  120.000000
8.514936329588014  0.000000  0.000000  0.000000  -21.12944755486623  8.744520428232684  7.730363935247655  60.45999292979906  6.194397018045683  7.299254113277409  29.051317821754587  17.097063630757027  11.65652873076292  11.40688514776134  120.000000
8.555101123595506  0.000000  0.000000  0.000000  -21.09760757372765  9.252709357905653  8.442864256439245  60.715050384760396  6.712370063193496  7.936161034371906  29.328235469366238  19.826492117558978  9.530655961209728  11.164887312909467  120.000000
8.595265917602996  0.000000  0.000000  0.000000  -21.122041420196734  9.770796959727846  9.207388126736474  60.98629095494641  7.2260345858575965  8.625974554648575  29.369378187548875  22.614712238065138  7.674317553584382  10.962651992808345  120.000000
8.635430711610487  0.000000  0.000000  0.000000  -21.2005667920826  10.289974839559079  10.014336339771273  61.269216785081134  7.720529900128911  9.360247701109133  29.247803414728235  25.431460174884442  6.0324650403214335  10.794248380158123  120.000000
8.675595505617977  0.000000  0.000000  0.000000  -21.3312877746021  10.802838850899343  10.854276541769297  61.5582087586315  8.184634251070433  10.127720715785616  29.01115605774235  28.248286150040368  4.568632615128471  10.654778207310319  120.000000
8.715760299625469  0.000000  0.000000  0.000000  -21.51331425982016  11.303473951053705  11.7176422721082  61.84620955749451  8.610225684202488  10.914619299954891  28.689981645029814  31.038220135684043  3.257303102937857  10.540150667964477  120.000000
8.755925093632959  0.000000  0.000000  0.000000  -21.74559637092479  11.787137582634967  12.594741709097892  62.125383128820495  8.991866910927191  11.705697234883184  28.30531455470503  33.7759852817869  2.0776404761186504  10.44727308995036  120.000000
8.79608988764045  0.000000  0.000000  0.000000  -22.025215549135357  12.249663367132662  13.475685899487463  62.38887387210052  9.326869886814531  12.486008391108285  27.873259335620066  36.43827580246261  1.0106064504319383  10.37413316680264  120.000000
8.83625468164794  0.000000  0.000000  0.000000  -22.347035034589666  12.687447522085618  14.350363744999436  62.6315258422156  9.614943034646315  13.242047549091712  27.4072518138892  39.003785482777374  0.038258103334349106  10.319588412853594  120.000000
8.87641947565543  0.000000  0.000000  0.000000  -22.704103923791813  13.097505177017755  15.208494352254526  62.84956639899966  9.857824132919351  13.962051466019116  26.918576839145455  41.45327576679978  -0.855544637379135  10.283003607969157  120.000000
8.916584269662922  0.000000  0.000000  0.000000  -23.088619066931187  13.477540097617382  16.039897874167426  63.04044600895055  10.058861760798171  14.63635348667441  26.41702519318646  43.76970467793668  -1.684492503523285  10.263597059757538  120.000000
8.956749063670411  0.000000  0.000000  0.000000  -23.492419664325556  13.82590550978223  16.834972298555993  63.202565814537294  10.222702126927395  15.257553122658729  25.911722103473018  45.93870016124665  -2.4593687191250586  10.260031067279355  120.000000
8.996913857677903  0.000000  0.000000  0.000000  -23.907510560717185  14.141517129430298  17.585529808111147  63.335062311502384  10.355262536827627  15.820707746294655  25.411695013326938  47.949119323124584  -3.18748592897564  10.269983154584468  120.000000
9.037078651685393  0.000000  0.000000  0.000000  -24.326600656502077  14.42387137384195  18.28548683563212  63.43750428352116  10.463529501610104  16.323325910054596  24.92624021140717  49.793472313018675  -3.8724346289766998  10.29003202859908  120.000000
9.077243445692885  0.000000  0.000000  0.000000  -24.743338939838278  14.672655610750745  18.931119463351052  63.50950642029859  10.555105113727079  16.765252403177744  24.4648695136398  51.467779381056566  -4.514085986593696  10.315748942766255  120.000000
9.117408239700374  0.000000  0.000000  0.000000  -25.1524304673227  14.88780346663613  19.52095030810838  63.55059285835077  10.637668463126204  17.148011263018443  24.037094406496685  52.97094909729808  -5.109285122256324  10.342136991837158  120.000000
9.157573033707866  0.000000  0.000000  0.000000  -25.54925410457911  15.069383002553696  20.055071181990296  63.56043609916464  10.718357936621809  17.474060376713723  23.65223174163132  54.303658020232916  -5.65297102437643  10.364365979388337  120.000000
9.197737827715356  0.000000  0.000000  0.000000  -25.92888884305643  15.217234980599628  20.534047204765788  63.5393065033601  10.802820804559682  17.746325072181513  23.31964216798757  55.466928310783395  -6.139836306951253  10.378603921928052  120.000000
9.237902621722846  0.000000  0.000000  0.000000  -26.285327015371543  15.331115659182746  20.95794929878881  63.48865944917222  10.894520217052648  17.967662539324067  23.048844748808374  56.46072751085527  -6.565771706735959  10.382783149911509  120.000000
9.278067415730337  0.000000  0.000000  0.000000  -26.611039213689455  15.41081275733406  21.32573737559417  63.41139822967313  10.994494579735711  18.140364858521185  22.849353199159616  57.283021704205694  -6.92882102327202  10.376844539027884  120.000000
9.318232209737827  0.000000  0.000000  0.000000  -26.89695944221018  15.456287312699919  21.63504375873355  63.31184660089042  11.10151891931311  18.26581349640431  22.73029830794984  57.9293158817749  -7.22944000776267  10.36240879543928  120.000000
9.358397003745319  0.000000  0.000000  0.000000  -27.132906131455417  15.467766097350145  21.882251668667443  63.19541331788341  11.212547727554306  18.344287257304007  22.700054900158573  58.39273482407948  -7.47013688372928  10.341993394844453  120.000000
9.398561797752809  0.000000  0.000000  0.000000  -27.30831768676115  15.445734177021787  22.062764187684614  63.06803849448785  11.323318877530028  18.374930709454222  22.765780545498902  58.66446277691153  -7.654707758258161  10.317975162383766  120.000000
9.4387265917603  0.000000  0.000000  0.000000  -27.41321923380554  15.390986283742658  22.171300808496472  62.93552605108609  11.428998891717782  18.35574250546713  22.933006006130494  58.734401386488656  -7.787244427860015  10.291602883339046  120.000000
9.47889138576779  0.000000  0.000000  0.000000  -27.439126943570994  15.304575192827539  22.202094451404136  62.80296828340451  11.524743020365074  18.28367644864201  23.205290238306453  58.59184800391307  -7.871174263734695  10.262357315979635  120.000000
9.519056179775282  0.000000  0.000000  0.000000  -27.379744004633572  15.18773183735457  22.148924180510583  62.67434970190037  11.606035164004828  18.154854439725202  23.584134567867025  58.22610334254948  -7.908553884522749  10.22791690738685  120.000000
9.559220973782772  0.000000  0.000000  0.000000  -27.23139437150023  15.041784583816774  22.005024817654085  62.552401664252386  11.668831728241637  17.964882931627898  24.069020630892087  57.62692353589954  -7.899648857054733  10.184918454777241  120.000000
9.599385767790261  0.000000  0.000000  0.000000  -26.993302579237252  14.867956944800016  21.763001379411183  62.438534163289106  11.709541317989968  17.70927986667315  24.65750570298444  56.78494655961587  -7.842800976857705  10.130197142975327  120.000000
9.639550561797753  0.000000  0.000000  0.000000  -26.667989593231543  14.667258685832174  21.415028686674507  62.3326650108949  11.72505879000522  17.38389695070948  25.34500842656762  55.69217399342425  -7.734219380403278  10.062335708826309  120.000000
9.679715355805243  0.000000  0.000000  0.000000  -26.26166736265002  14.440463864575664  20.953325563053195  62.233090796914645  11.712886389276495  16.985241904898267  26.1244538532885  54.342596706276346  -7.567790085336128  9.983093126100473  120.000000
9.719880149812735  0.000000  0.000000  0.000000  -25.784554252429427  14.187854213724103  20.370800738553395  62.13626038806947  11.671152312306065  16.511203338552193  26.985913901201428  52.732980271997484  -7.3347914499805755  9.898406274937694  120.000000
9.760044943820224  0.000000  0.000000  0.000000  -25.251298056781202  13.9091130026935  19.6620452521812  62.0362959831039  11.598902538329693  15.961762180741788  27.915872609117073  50.86395127788638  -7.023461220865772  9.818484931760509  120.000000
9.800209737827716  0.000000  0.000000  0.000000  -24.680907272015958  13.603446213708532  18.824763507715442  61.92498537815929  11.496375491904622  15.339931515651056  28.89684501646861  48.74115275310116  -6.618658669359505  9.757098222434832  120.000000
9.840374531835206  0.000000  0.000000  0.000000  -24.09503214440306  13.26942691763296  17.860919154399166  61.793060360848564  11.365163092009942  14.652720872502718  29.9083406367955  46.37636008843709  -6.102393844495507  9.730904451459823  120.000000
9.880539325842697  0.000000  0.000000  0.000000  -23.51593544723556  12.904843744228566  16.77740073611537  61.63182910400072  11.208546296552434  13.912071659749557  30.927333361364937  43.78795211349317  -5.454477973297067  9.758115102373296  120.000000
